<svg width="1262" height="199" viewBox="0 0 1262 199" fill="none" xmlns="http://www.w3.org/2000/svg">
<path d="M1260 124.797C1260.83 124.797 1261.5 124.125 1261.5 123.297V109.797C1261.5 108.968 1260.83 108.297 1260 108.297C1259.17 108.297 1258.5 108.968 1258.5 109.797V121.797L1246.5 121.797C1245.67 121.797 1245 122.468 1245 123.297C1245 124.125 1245.67 124.797 1246.5 124.797L1260 124.797ZM0.939339 124.357C73.039 196.457 164.176 208.381 265.95 191.926C367.652 175.483 480.319 130.644 595.698 88.8948C711.175 47.1104 829.428 8.3948 942.629 3.92844C1055.75 -0.534611 1163.78 29.202 1258.94 124.357L1261.06 122.236C1165.22 26.3914 1056.32 -3.5594 942.511 0.93077C828.791 5.41762 710.137 44.2957 594.677 86.0738C479.119 127.888 366.816 172.579 265.471 188.964C164.199 205.338 74.2109 193.386 3.06066 122.236L0.939339 124.357Z" fill="white"/>
</svg>
