<svg width="1095" height="750" viewBox="0 0 1095 750" fill="none" xmlns="http://www.w3.org/2000/svg">
<g opacity="0.47">
<g filter="url(#filter0_d_1472_606)">
<path d="M-213.22 762.174C-101.971 920.685 44.9504 1042.29 227.544 1126.99C410.138 1211.69 599.382 1192.94 795.277 1070.73C991.172 948.515 1037.73 791.214 934.943 598.823C832.159 406.432 734.816 220.09 642.914 39.7993C551.013 -140.492 405.301 -194.337 205.778 -121.737C6.25513 -49.1362 -141.271 76.7045 -236.8 255.786C-332.329 434.867 -324.469 603.663 -213.22 762.174Z" fill="#1C2E21"/>
</g>
<g filter="url(#filter1_d_1472_606)">
<path d="M-244.518 636.946C-165.738 755.418 -58.1263 847.923 78.3173 914.462C214.761 981.001 348.768 963.555 480.338 862.124C611.909 760.693 662.669 633.701 632.619 481.148C602.569 328.595 531.505 218.238 419.426 150.076C307.348 81.9144 189.178 58.3824 64.9166 79.4801C-59.3445 100.578 -161.677 169.145 -242.081 285.183C-322.486 401.22 -323.298 518.475 -244.518 636.946Z" fill="#264930"/>
</g>
<g filter="url(#filter2_d_1472_606)">
<path d="M-248.485 842.103C-219.048 952.001 -147.151 1009.78 -32.7965 1015.45C81.5583 1021.11 160.531 983.158 204.122 901.584C247.712 820.009 279.981 740.134 300.927 661.959C321.873 583.783 302.059 499.66 241.485 409.588C180.911 319.516 103.92 302.238 10.5111 357.754C-82.8975 413.27 -156.775 480.399 -211.122 559.141C-265.469 637.883 -277.923 732.204 -248.485 842.103Z" fill="#315F3E"/>
</g>
</g>
<defs>
<filter id="filter0_d_1472_606" x="-359.4" y="-230.4" width="1453.8" height="1494.8" filterUnits="userSpaceOnUse" color-interpolation-filters="sRGB">
<feFlood flood-opacity="0" result="BackgroundImageFix"/>
<feColorMatrix in="SourceAlpha" type="matrix" values="0 0 0 0 0 0 0 0 0 0 0 0 0 0 0 0 0 0 127 0" result="hardAlpha"/>
<feOffset dx="25" dy="4"/>
<feGaussianBlur stdDeviation="40.7"/>
<feComposite in2="hardAlpha" operator="out"/>
<feColorMatrix type="matrix" values="0 0 0 0 0 0 0 0 0 0 0 0 0 0 0 0 0 0 0.25 0"/>
<feBlend mode="normal" in2="BackgroundImageFix" result="effect1_dropShadow_1472_606"/>
<feBlend mode="normal" in="SourceGraphic" in2="effect1_dropShadow_1472_606" result="shape"/>
</filter>
<filter id="filter1_d_1472_606" x="-359.4" y="-5.4" width="1106.8" height="1044.8" filterUnits="userSpaceOnUse" color-interpolation-filters="sRGB">
<feFlood flood-opacity="0" result="BackgroundImageFix"/>
<feColorMatrix in="SourceAlpha" type="matrix" values="0 0 0 0 0 0 0 0 0 0 0 0 0 0 0 0 0 0 127 0" result="hardAlpha"/>
<feOffset dx="25" dy="4"/>
<feGaussianBlur stdDeviation="40.7"/>
<feComposite in2="hardAlpha" operator="out"/>
<feColorMatrix type="matrix" values="0 0 0 0 0 0 0 0 0 0 0 0 0 0 0 0 0 0 0.25 0"/>
<feBlend mode="normal" in2="BackgroundImageFix" result="effect1_dropShadow_1472_606"/>
<feBlend mode="normal" in="SourceGraphic" in2="effect1_dropShadow_1472_606" result="shape"/>
</filter>
<filter id="filter2_d_1472_606" x="-320.4" y="248.6" width="735.8" height="852.8" filterUnits="userSpaceOnUse" color-interpolation-filters="sRGB">
<feFlood flood-opacity="0" result="BackgroundImageFix"/>
<feColorMatrix in="SourceAlpha" type="matrix" values="0 0 0 0 0 0 0 0 0 0 0 0 0 0 0 0 0 0 127 0" result="hardAlpha"/>
<feOffset dx="25" dy="4"/>
<feGaussianBlur stdDeviation="40.7"/>
<feComposite in2="hardAlpha" operator="out"/>
<feColorMatrix type="matrix" values="0 0 0 0 0 0 0 0 0 0 0 0 0 0 0 0 0 0 0.25 0"/>
<feBlend mode="normal" in2="BackgroundImageFix" result="effect1_dropShadow_1472_606"/>
<feBlend mode="normal" in="SourceGraphic" in2="effect1_dropShadow_1472_606" result="shape"/>
</filter>
</defs>
</svg>
