<svg width="463" height="438" viewBox="0 0 463 438" fill="none" xmlns="http://www.w3.org/2000/svg">
<path d="M107.252 -16.0729C105.139 35.3377 120.458 69.875 175.657 137.632C251.721 231.225 264.662 261.017 262.021 338.001C260.701 379.129 255.418 397.848 238.251 424.212C226.63 442.404 213.161 455.586 194.409 467.45C183.316 474.568 180.411 475.096 157.961 475.096H133.399L138.417 464.023C145.284 447.94 147.397 424.476 143.699 400.748C140.266 378.075 136.568 367.793 111.478 311.636C101.97 290.545 92.1978 267.608 89.5567 260.753C86.9155 253.898 83.7462 248.626 82.1615 249.153C80.841 249.417 76.8793 257.062 73.71 265.499C70.2765 274.199 60.7685 296.082 52.5811 314.273C29.0752 365.156 21.6801 388.093 20.0954 416.039C19.039 438.186 21.416 453.477 29.0752 471.668C30.1317 474.305 25.6418 475.096 11.1157 475.096C-5.52335 475.096 -9.74911 474.041 -18.993 467.714C-69.7023 434.231 -94.2647 384.929 -98.2263 310.055C-99.811 285.008 -99.0187 274.199 -95.3211 257.326C-86.6055 217.516 -69.7023 187.197 -41.7066 161.096L-24.0111 144.486L-22.4264 162.941C-20.0494 186.933 -13.1826 202.224 1.87176 215.934C19.5672 232.28 23.5289 231.225 15.6055 211.979C3.45643 182.451 0.551205 164.787 1.60765 132.359C2.39998 108.103 4.24876 97.8213 10.0592 81.2117C23.793 41.6651 49.94 6.07322 86.6514 -22.9276C95.3671 -29.7823 103.819 -36.1098 105.403 -36.9007C106.988 -37.9553 107.78 -30.5733 107.252 -16.0729Z" fill="#433926"/>
<path d="M348.471 140.676C336.344 188.854 339.998 229.722 358.273 247.996C366.911 256.635 368.573 255.97 369.902 243.843C372.228 221.415 387.179 202.476 409.108 194.17L417.581 191.014L414.757 196.33C410.936 203.473 409.773 223.243 412.431 234.373C415.421 246.999 422.233 261.619 432.201 276.404C437.018 283.382 440.341 290.027 439.676 291.024C439.012 292.021 439.178 292.353 440.175 291.854C441.005 291.356 442.999 293.682 444.66 297.337C459.28 330.397 462.768 346.179 462.935 376.248C462.935 397.347 462.436 400.836 458.283 412.797C455.791 420.107 451.638 429.41 448.98 433.563C442.334 444.029 429.875 455.825 427.217 454.33C425.888 453.499 425.555 453.665 426.386 454.828C427.05 455.991 424.891 457.984 420.904 460.144C415.588 462.802 411.102 463.467 399.141 463.467H383.857L388.841 457.154C397.479 446.355 399.971 437.883 399.971 420.273C399.971 399.673 394.821 385.219 378.707 360.798C372.228 350.997 365.416 339.201 363.257 334.55C358.937 324.582 355.781 309.298 357.11 304.148C360.1 292.353 338.669 311.956 331.194 327.905C325.047 340.697 322.555 357.143 324.216 372.926C325.047 379.239 325.213 384.887 324.881 385.219C323.884 386.548 309.763 370.434 307.105 364.619C305.443 361.463 303.616 358.805 302.785 358.805C300.792 358.805 288.997 374.587 284.843 382.894C272.882 406.816 273.214 437.218 285.508 455.16L291.156 463.467H282.185C274.211 463.467 272.217 462.636 263.08 455.991C251.617 447.518 239.49 432.068 229.854 413.628C210.251 376.415 207.759 328.569 223.043 291.854C228.525 278.73 239.158 260.622 245.304 253.478L249.624 248.661V257.632C249.79 267.267 254.275 282.551 257.266 283.548C258.429 283.88 259.924 278.564 261.253 268.928C264.409 244.84 270.556 225.07 281.188 203.307C289.495 186.196 293.15 180.88 304.613 168.752C317.072 155.462 342.656 136.191 347.64 136.191C348.969 136.191 349.302 137.52 348.471 140.676Z" fill="#493526"/>
<path d="M34.3146 109.958C10.9521 133.776 -1.19632 149.593 -21.7553 183.46C-64.7421 254.73 -73.1526 291.76 -60.8172 355.028C-56.5185 376.428 -53.1544 386.476 -45.3046 400.432C-38.0155 413.644 -20.447 432.253 -6.4295 441.557C4.41066 448.628 5.53206 449 19.7364 449C33.0063 449 34.3146 448.628 31.698 446.209C26.2779 440.626 17.6805 419.971 14.5032 404.34C10.5783 384.988 11.8866 360.797 17.6805 342.189C21.9792 327.674 41.6036 286.55 47.5844 278.921C52.2569 273.152 54.8735 274.082 54.8735 281.712C54.8735 291.202 60.4805 315.021 67.7696 337.351C75.8062 360.983 91.8796 396.897 94.4962 396.897C95.4307 396.897 97.4866 395.594 98.9818 394.106C102.533 390.756 113.373 367.124 116.737 356.331C117.859 352.051 119.728 348.515 120.475 348.515C124.587 348.515 133.371 389.64 133.371 408.992C133.371 424.251 132.25 429.647 127.017 441.929L124.026 449H135.801C145.894 449 148.884 448.07 155.986 443.604C190.749 420.343 210 378.289 210 325.069C210 302.367 205.514 283.201 195.609 263.662C188.133 248.589 178.788 236.308 176.171 237.796C175.237 238.541 175.05 237.796 175.611 236.308C176.171 234.633 172.807 230.725 166.639 225.701L156.734 217.886L155.425 231.842C154.304 245.054 150.379 255.66 144.211 262.918C138.978 268.872 129.259 275.943 125.708 275.943C122.157 275.943 107.392 259.382 94.4962 240.774C82.3477 222.91 69.8255 195.184 63.8447 172.109C58.6115 152.198 58.0508 147.546 57.8639 119.262C57.677 101.956 57.3032 88 56.7425 88C56.3687 88 46.2761 97.8624 34.3146 109.958Z" fill="#A4571F"/>
</svg>
