<svg width="413" height="413" viewBox="0 0 413 413" fill="none" xmlns="http://www.w3.org/2000/svg">
<path d="M219.196 27.6576C248.305 57.3349 263.441 77.0425 289.057 119.24C342.618 208.04 353.097 254.179 337.727 333.009C332.371 359.673 328.18 372.193 318.399 389.582C309.317 406.043 287.427 429.229 269.962 440.822C256.455 449.632 255.058 450.096 237.36 450.096C220.826 450.096 219.196 449.632 222.456 446.618C229.209 439.662 239.921 413.926 243.88 394.451C248.77 370.338 247.14 340.197 239.921 317.011C234.565 298.927 210.114 247.687 202.662 238.181C196.84 230.994 193.58 232.153 193.58 241.659C193.58 253.483 186.593 283.161 177.511 310.983C167.498 340.429 147.471 385.177 144.211 385.177C143.046 385.177 140.485 383.554 138.622 381.699C134.197 377.525 120.691 348.08 116.499 334.632C115.102 329.3 112.773 324.894 111.842 324.894C106.718 324.894 95.7734 376.134 95.7734 400.247C95.7734 419.259 97.1706 425.983 103.691 441.285L107.417 450.096H92.7461C80.171 450.096 76.445 448.936 67.5959 443.372C24.2817 414.39 0.295928 361.991 0.295928 295.681C0.295928 267.395 5.88485 243.514 18.2271 219.169C27.5419 200.389 39.1855 185.086 42.4457 186.941C43.6101 187.869 43.843 186.941 43.1444 185.086C42.4457 183 46.6374 178.131 54.3222 171.871L66.6644 162.133L68.2945 179.522C69.6918 195.984 74.5821 209.199 82.2668 218.242C88.7873 225.661 100.897 234.471 105.321 234.471C109.746 234.471 128.143 213.836 144.211 190.651C159.347 168.393 174.95 133.847 182.402 105.097C188.922 80.2884 189.621 74.4921 189.854 39.2503C190.087 17.6878 190.552 0.298786 191.251 0.298786C191.717 0.298786 204.292 12.5871 219.196 27.6576Z" fill="#493526"/>
<path d="M339.465 29.7957C341.161 71.0571 328.867 98.7762 284.565 153.156C223.517 228.273 213.13 252.184 215.25 313.97C216.31 346.979 220.549 362.002 234.327 383.162C243.654 397.762 254.465 408.342 269.515 417.864C278.417 423.577 280.749 424 298.767 424H318.48L314.453 415.113C308.941 402.206 307.246 383.373 310.213 364.33C312.969 346.132 315.936 337.88 336.074 292.81C343.705 275.882 351.548 257.474 353.667 251.972C355.787 246.471 358.331 242.239 359.603 242.662C360.662 242.873 363.842 249.01 366.386 255.781C369.141 262.763 376.772 280.326 383.343 294.926C402.209 335.764 408.144 354.173 409.416 376.602C410.264 394.376 408.356 406.649 402.209 421.249C401.361 423.365 404.964 424 416.623 424C429.977 424 433.369 423.154 440.788 418.075C481.486 391.203 501.2 351.634 504.379 291.541C505.651 271.439 505.015 262.763 502.047 249.221C495.052 217.27 481.486 192.937 459.017 171.989L444.815 158.658L443.543 173.47C441.636 192.725 436.124 204.998 424.042 216.001C409.84 229.12 406.66 228.273 413.019 212.827C422.77 189.128 425.102 174.951 424.254 148.925C423.618 129.458 422.134 121.205 417.471 107.875C406.448 76.1354 385.463 47.5699 355.999 24.2942C349.004 18.7927 342.221 13.7144 340.949 13.0796C339.677 12.2332 339.041 18.1579 339.465 29.7957Z" fill="#BA8929"/>
<path d="M145.867 155.6C155.6 194.267 152.667 227.067 138 241.733C131.067 248.667 129.733 248.133 128.667 238.4C126.8 220.4 114.8 205.2 97.2001 198.533L90.4001 196L92.6668 200.267C95.7335 206 96.6668 221.867 94.5335 230.8C92.1335 240.933 86.6668 252.667 78.6668 264.533C74.8001 270.133 72.1335 275.467 72.6668 276.267C73.2001 277.067 73.0668 277.333 72.2668 276.933C71.6001 276.533 70.0001 278.4 68.6668 281.333C56.9335 307.867 54.1335 320.533 54.0001 344.667C54.0001 361.6 54.4001 364.4 57.7335 374C59.7335 379.867 63.0668 387.333 65.2001 390.667C70.5335 399.067 80.5335 408.533 82.6668 407.333C83.7335 406.667 84.0001 406.8 83.3335 407.733C82.8001 408.667 84.5335 410.267 87.7335 412C92.0001 414.133 95.6001 414.667 105.2 414.667H117.467L113.467 409.6C106.533 400.933 104.533 394.133 104.533 380C104.533 363.467 108.667 351.867 121.6 332.267C126.8 324.4 132.267 314.933 134 311.2C137.467 303.2 140 290.933 138.933 286.8C136.533 277.333 153.733 293.067 159.733 305.867C164.667 316.133 166.667 329.333 165.333 342C164.667 347.067 164.533 351.6 164.8 351.867C165.6 352.933 176.933 340 179.067 335.333C180.4 332.8 181.867 330.667 182.533 330.667C184.133 330.667 193.6 343.333 196.933 350C206.533 369.2 206.267 393.6 196.4 408L191.867 414.667H199.067C205.467 414.667 207.067 414 214.4 408.667C223.6 401.867 233.333 389.467 241.067 374.667C256.8 344.8 258.8 306.4 246.533 276.933C242.133 266.4 233.6 251.867 228.667 246.133L225.2 242.267V249.467C225.067 257.2 221.467 269.467 219.067 270.267C218.133 270.533 216.933 266.267 215.867 258.533C213.333 239.2 208.4 223.333 199.867 205.867C193.2 192.133 190.267 187.867 181.067 178.133C171.067 167.467 150.533 152 146.533 152C145.467 152 145.2 153.067 145.867 155.6Z" fill="#A4571F"/>
</svg>
